<svg xmlns="http://www.w3.org/2000/svg" fill="none" viewBox="0 0 1024 1024"><path fill="#F5F5F5" d="M8.583 776.197c0 1.467 1.238 2.707 2.705 2.707 1.576 0 2.829-1.24 2.829-2.707v-31.039l19.526-.23c12.417 0 22.461-10.046 22.461-22.461 0-12.417-10.045-22.585-22.461-22.585H11.288c-1.467 0-2.705 1.24-2.705 2.707v73.608Zm5.534-36.574v-34.205h19.526c9.373 0 17.049 7.676 17.049 17.049s-7.676 17.049-17.049 17.156H14.117ZM124.636 777.1c.458 1.131 1.575 1.804 2.599 1.804.336.106.566 0 1.009 0 1.361-.567 2.033-2.263 1.467-3.609l-27.43-73.379c-.336-1.009-1.468-1.697-2.707-1.697-1.131 0-2.262.673-2.705 1.697l-27.432 73.379c-.564 1.361.23 3.042 1.576 3.609.336-.107.795 0 1.009 0 1.131 0 2.141-.673 2.599-1.804l7.003-18.623h36.009l7.003 18.623Zm-24.953-66.589 15.916 42.446H83.658l16.025-42.446Zm89.066 63.546c1.237 2.477 3.608 3.608 5.076 3.608h.23c.673 0 1.238-.106 1.361-.106 1.468-.565 2.141-2.141 1.804-3.609-.458-1.239-1.804-1.927-3.043-1.804-.107-.108-.673-.566-1.131-1.927-.566-1.697-1.009-4.511-1.009-9.144 0-8.914-5.412-14.679-10.611-17.614-.458-.23-.795-.336-1.131-.566 7.676-3.608 12.982-11.406 12.982-20.427 0-12.539-10.046-22.585-22.461-22.585h-22.585c-1.361.108-2.477 1.361-2.477 2.707v73.608c0 1.467 1.24 2.707 2.707 2.707 1.575 0 2.829-1.24 2.829-2.707v-31.269h19.19c.106 0 .228.107.564.23 1.468.229 5.642 1.468 9.144 3.945 3.501 2.598 6.438 6.208 6.438 11.972 0 6.666.795 10.383 2.141 12.981h-.018Zm-.903-51.59c0 9.25-7.446 16.819-16.59 17.049h-19.984v-34.098h19.526c9.372 0 17.048 7.569 17.048 17.049ZM236.057 776.197c0 1.467 1.237 2.707 2.707 2.707 1.467 0 2.705-1.24 2.705-2.707v-70.779h23.822c1.467 0 2.707-1.238 2.707-2.829 0-1.467-1.24-2.707-2.707-2.707h-53.057c-1.468 0-2.707 1.24-2.707 2.707 0 1.576 1.239 2.829 2.707 2.829h23.822l.001 70.779Zm52.722 0c0 1.467 1.131 2.6 2.477 2.707h40.87c1.576 0 2.707-1.24 2.707-2.707 0-1.575-1.131-2.829-2.707-2.829h-37.813v-31.162h33.074c1.468 0 2.705-1.237 2.705-2.705 0-1.576-1.237-2.83-2.705-2.83h-33.074v-31.269h37.813c1.576 0 2.707-1.238 2.707-2.829 0-1.467-1.131-2.707-2.707-2.707h-40.641c-1.468 0-2.705 1.24-2.705 2.707l-.001 73.624Zm118.3 2.722c21.79 0 39.511-17.614 39.511-39.403 0-21.789-17.72-39.619-39.511-39.619h-14.786c-1.468 0-2.705 1.24-2.705 2.707v73.608c0 1.467 1.131 2.6 2.477 2.707h15.014Zm-11.972-5.535v-67.95h11.972c18.747.108 33.975 15.245 33.975 34.098 0 18.745-15.243 33.867-33.975 33.867l-11.972-.015ZM465.884 776.197c0 1.467 1.238 2.707 2.707 2.707 1.575 0 2.829-1.24 2.829-2.707v-73.608c0-1.467-1.239-2.707-2.829-2.707-1.469 0-2.707 1.24-2.707 2.707v73.608Zm83.883.903c.458 1.131 1.575 1.804 2.599 1.804.336.106.566 0 1.009 0 1.361-.567 2.034-2.263 1.467-3.609l-27.43-73.379c-.336-1.009-1.468-1.697-2.707-1.697-1.131 0-2.262.673-2.705 1.697l-27.432 73.379c-.564 1.361.23 3.042 1.576 3.609.336-.107.795 0 1.009 0 1.131 0 2.141-.673 2.599-1.804l7.003-18.623h36.009l7.003 18.623Zm-24.953-66.589 15.916 42.446h-31.941l16.025-42.446Zm89.065 63.546c1.237 2.477 3.608 3.608 5.076 3.608h.23c.673 0 1.238-.106 1.361-.106 1.468-.565 2.141-2.141 1.804-3.609-.458-1.239-1.804-1.927-3.043-1.804-.107-.108-.673-.566-1.131-1.927-.566-1.697-1.009-4.511-1.009-9.144 0-8.914-5.412-14.679-10.611-17.614-.458-.23-.795-.336-1.131-.566 7.676-3.608 12.982-11.406 12.982-20.427 0-12.539-10.046-22.585-22.461-22.585h-22.585c-1.361.108-2.477 1.361-2.477 2.707v73.608c0 1.467 1.24 2.707 2.707 2.707 1.575 0 2.829-1.24 2.829-2.707v-31.269h19.19c.106 0 .228.107.564.23 1.468.229 5.642 1.468 9.144 3.945 3.501 2.598 6.438 6.208 6.438 11.972 0 6.666.795 10.383 2.141 12.981h-.018Zm-.902-51.59c0 9.25-7.446 16.819-16.59 17.049h-19.984v-34.098h19.526c9.372 0 17.048 7.569 17.048 17.049Zm30.81 53.73c0 1.467 1.237 2.707 2.707 2.707 1.574 0 2.828-1.24 2.828-2.707v-73.608c0-1.467-1.239-2.707-2.828-2.707-1.469 0-2.707 1.24-2.707 2.707v73.608Zm30.152-37.353c.107 22.125 16.819 40.076 38.148 40.076 21.117 0 37.707-17.951 37.814-40.076-.107-22.127-16.712-40.077-37.814-40.077-21.328 0-38.041 17.95-38.148 40.077Zm5.519 0c0-19.526 14.679-34.435 32.629-34.435 17.386 0 32.065 14.908 32.171 34.435-.106 19.297-14.786 34.54-32.171 34.54-17.95 0-32.629-15.243-32.629-34.54Z"/><path fill="#D2E28B" d="M857.943 724.165c0-13.441-10.841-24.267-24.265-24.267h-20.214a6.193 6.193 0 0 0-6.207 6.209v66.604c0 3.395 2.829 6.209 6.207 6.209 3.501 0 6.315-2.829 6.315-6.209v-24.495h13.885c13.439 0 24.265-10.841 24.265-24.035l.014-.016Zm-38.165-11.744h13.885c6.545 0 11.62 5.199 11.742 11.744a11.688 11.688 0 0 1-11.742 11.514h-13.885v-23.258Zm101.604 53.287c-.229-1.131-.564-3.271-.458-6.666 0-4.739-1.467-8.914-3.73-12.187-1.132-1.696-2.478-3.042-3.946-4.172 5.414-4.511 8.807-11.071 8.807-18.517 0-13.441-10.718-24.267-24.159-24.267h-20.198c-3.501 0-6.208 2.707-6.208 6.209v66.604a6.184 6.184 0 0 0 6.208 6.209c3.501 0 6.315-2.829 6.315-6.209v-24.495h13.318c1.009.23 3.944 1.133 6.315 2.707 1.361.903 2.707 2.034 3.395 3.271.794 1.24 1.237 2.707 1.359 4.863 0 6.208.796 10.276 2.37 13.547.903 1.575 2.14 3.043 3.608 3.945 1.576 1.009 3.273 1.239 4.404 1.239h.106c1.133 0 2.034-.23 2.477-.336 3.273-1.131 5.077-4.632 3.946-7.906-.673-1.911-2.141-3.272-3.946-3.838l.017-.001Zm-23.485-30.029h-13.883v-23.258h13.883c6.438 0 11.637 5.199 11.637 11.744 0 6.315-5.199 11.514-11.637 11.514ZM977.038 697.636a37.703 37.703 0 0 0-27.66 12.079c-7.003 7.448-11.176 17.386-11.176 28.563s4.172 21.223 11.176 28.563c6.881 7.338 16.819 12.079 27.66 12.079 10.383 0 20.321-4.741 26.992-12.079 7-7.34 11.4-17.386 11.4-28.563s-4.4-21.115-11.4-28.563c-6.671-7.446-16.594-12.079-26.992-12.079Zm17.829 60.274c-4.739 5.077-11.054 8.134-17.844 8.134-7.216 0-13.546-3.042-18.287-8.134-4.739-4.847-7.676-11.972-7.676-19.648s2.937-14.786 7.676-19.754c4.74-5.077 11.07-8.012 18.287-8.012 6.775 0 13.09 2.935 17.844 8.012 4.634 4.969 7.673 12.079 7.673 19.754 0 7.675-3.039 14.786-7.673 19.648ZM719.936 344.717c9.842-9.245 10.309-24.187 1.064-34.03-9.245-9.841-24.188-10.307-34.029-1.062l-85.134 79.994c-8.137 7.641-15.621 8.237-22.056 1.395-3.212-3.429-5.176-7.216-5.847-12.222-7.341-30.965-21.885-57.572-43.185-80.256-54.667-58.191-151.125-81.954-234.551-3.565-83.429 78.389-66.137 176.53-11.455 234.72l95.274 101.406c9.245 9.841 24.187 10.308 34.029 1.062l305.89-287.442ZM319.819 496.742c-40.205-42.784-51.417-109.585 9.343-166.677 60.742-57.089 126.302-41.342 166.508 1.44s51.832 109.187-8.912 166.277l-79.152 74.377c-4.705 4.414-12.177 4.179-17.022-.108l-70.765-75.309Z"/><path fill="#D2E28B" d="M358.624 384.988c.006 4.238.571 6.049 1.464 9.81-4.71-.997-7.546 3.672.225 6.84 1.367.561 4.496 2.273 5.934 2.008 8.376-1.533-8.638-14.784 1.568-31.571.036 5.305.241 10.713 2.173 15.187 1.43 3.309 5.615 7.811 9.079 8.643 3.243.776 3.739-1.968 5.145-3.275 2.434-2.268 18.55-2.807 22.55-2.807 5.432 0 10.887.307 16.091 1.001 2.304.304 5.567.305 6.968 1.7 1.499 1.494 1.894 4.364 5.412 3.367 3.813-1.07 7.075-5.074 8.851-8.47 2.477-4.708 1.87-9.708 2.345-15.314 3.8 6.914 4.27 14.625 1.301 22.496-.804 2.142-4.565 7.803-.409 9.045 2.334.701 7.914-2.7 9.738-3.662 9.849-5.204 8.401-6.473 19.997-2.172 3.204 1.193 18.348 6.701 19.818 7.943-2.4 5.877-13.687 14.549-22.552 16.179-14.549 2.671-27.489-10.346-30.676-4.899-.876 5.514 5.041 4.068 1.135 13.019-.939 2.162-5.1 9.308-4.406 11.474.675 2.134 3.808 2.474 5.207.699.735-.941 2.042-4.233 2.696-5.548 1.773-3.639 4.069-7.838 3.81-12.615 2.411.54 4.844 1.703 7.27 2.435 14.122 4.271 24.364.205 35.246-8.572 3.204-2.594 6.377-7.305 8.479-10.736 1.541-2.53 2.236-4.473-.828-5.974-1.909-.937-4.504-1.835-6.681-2.732-4.44-1.827-9.009-3.342-13.614-5.208-15.415-6.241-14.546-5.309-27.76 1.428.537-4.472 1.368-3.944 1.368-10.513 0-6.009-1.699-11.081-4.062-15.375-6.481-11.786-14.589-12.752-12.01-2.507 1.773 7.039 1.697 18.559-4.545 22.893-3.575-3.577-5.337-3.531-11.616-4.364-10.811-1.434-21.192-1.371-31.996-.064-5.412.662-9.485 1.032-12.071 4.434-4.175-2.829-5.54-7.28-5.542-14.444-.003-3.278 1.77-11.705 1.597-12.88-.792-5.301-7.837-1.968-11.986 5.543-3.172 5.736-4.737 10.506-4.731 17.523l.018.035ZM362.038 424.011c0 4.963 1.766 8.471 3.568 12.285 3.173 6.735 8.134 16.478 8.502 23.56.732 14.241-7.117 14.915-2.928 26.158 3.334 8.913 10.37 9.238 12.888 11.039 2.06 1.466 1.293 3.332 3.076 5.168 2.198 2.244 8.48 3.435 11.151 4.145 4.179 1.128 9.907 1.038 14.312.565 3.262-.36 9.318-2.06 12.017-3.27 1.941-.875 3.03-2.203 3.799-4.04 2.464-5.842 7.144-1.633 13.277-11.054 2.473-3.808 2.932-8.318 1.828-12.538-.458-1.727-3.476-10.812-4.673-11.417-2.095-1.066-4.301.266-4.472 2.401-.373 4.698 6.713 11.286 2.076 18.663-3.911 6.215-10.339 3.503-13.088 10.447-1.067 2.678-1.699 2.43-4.8 3.428-4.399 1.409-9.578 1.936-14.587 1.576-15.477-1.095-11.686-4.936-15.651-8.343-3.844-3.308-11.883-2.975-12.282-12.116-.332-7.482 6.848-9.035 3.037-27.292-2.043-9.803-11.307-23.333-11.077-28.361.16-3.27 2.099-3.608 2.575-5.667 1.637-6.939-8.342-1.963-9.714-1.435-8.343 3.175-15.944 6.504-26.022 2.466-6.482-2.602-15.291-9.239-17.556-14.62 1.509-1.227 10.549-4.41 13.108-5.368 2.102-.776 4.93-1.376 5.508-3.529.892-3.231-2.311-4.104-4.778-3.239l-19.926 7.944c-4.867 3.069 6.668 17.817 20.218 23.825 13.845 6.138 20.129 1.228 30.628-1.395l-.014.014ZM344.482 389.171c-2.629.432-6.646 1.761-4.765 5.173 1.699 3.065 4.614.001 8.039 1 7.306 2.136 6.671-7.806-3.274-6.173Z"/></svg>
