<!-- Generated by IcoMoon.io -->
<svg version="1.1" xmlns="http://www.w3.org/2000/svg" width="1024" height="1024" viewBox="0 0 1024 1024">
<g id="icomoon-ignore">
</g>
<path fill="#d2e28b" d="M997.519 316.091c19.8-18.606 21.041-48.209 2.436-68.008s-45.597-20.539-65.395-1.922l-172.125 162.407c-16.344 15.384-33.673 14.942-46.622 1.152-6.476-6.88-10.409-14.54-11.775-24.603-14.789-62.287-44.045-115.849-86.891-161.487-110.001-117.072-304.063-164.903-471.93-7.173-167.869 157.73-134.098 351.328-24.096 468.412l192.724 207.906c18.605 19.8 48.358 20.29 68.157 1.673zM189.845 622.417c-80.887-86.088-100.588-220.492 21.642-335.376s254.144-83.176 335.031 2.912c80.886 86.087 111.682 215.673-10.559 330.53l-162.56 153.269c-9.464 8.875-28.569 8.823-38.328 0.159z"></path>
<path fill="#d2e28b" d="M270.777 397.555c0.040 8.523 1.149 12.183 2.933 19.746-9.465-1.993-15.188 7.379 0.446 13.764 2.76 1.124 9.017 4.566 11.929 4.058 16.876-3.084-17.375-29.755 3.161-63.524 0.091 10.679 0.497 21.546 4.365 30.556 2.869 6.674 11.328 15.731 18.274 17.387 6.549 1.573 7.526-3.96 10.359-6.597 4.903-4.559 37.324-5.653 45.355-5.653 10.905 0.002 21.895 0.641 32.376 2.019 4.652 0.603 11.188 0.606 14.015 3.416 3.012 3.005 3.806 8.765 10.903 6.774 7.678-2.167 14.244-10.211 17.828-17.035 5-9.466 3.76-19.543 4.715-30.804 7.629 13.921 8.574 29.452 2.616 45.257-1.625 4.312-9.169 15.689-0.84 18.205 4.699 1.4 15.935-5.432 19.593-7.365 19.839-10.481 16.886-13.024 40.244-4.366 6.447 2.387 36.923 13.472 39.889 15.988-4.813 11.829-27.562 29.266-45.354 32.531-29.266 5.381-55.303-20.801-61.731-9.843-1.789 11.124 10.141 8.172 2.27 26.201-1.889 4.349-10.256 18.722-8.866 23.067 1.373 4.303 7.671 4.997 10.483 1.398 1.493-1.895 4.114-8.512 5.409-11.18 3.566-7.326 8.176-15.781 7.673-25.395 4.857 1.094 9.758 3.417 14.616 4.902 28.419 8.577 49.017 0.405 70.926-17.236 6.447-5.204 12.831-14.693 17.075-21.588 3.113-5.062 4.505-9.009-1.646-12.025-3.856-1.889-9.062-3.702-13.43-5.483-8.958-3.662-18.127-6.731-27.39-10.485-31.026-12.57-29.262-10.687-55.851 2.864 1.089-9.008 2.737-7.962 2.737-21.146 0-12.085-3.411-22.289-8.161-30.927-13.034-23.727-29.359-25.655-24.158-5.054 3.564 14.166 3.41 37.37-9.161 46.053-7.213-7.219-10.736-7.092-23.378-8.766-21.743-2.872-42.635-2.763-64.367-0.109-10.903 1.324-19.097 2.073-24.296 8.914-8.409-5.679-11.139-14.65-11.151-29.058-0.002-6.619 3.563-23.551 3.213-25.903-1.588-10.657-15.745-3.959-24.114 11.174-6.394 11.531-9.519 21.138-9.511 35.261z"></path>
<path fill="#d2e28b" d="M277.663 476.087c0.003 9.962 3.559 17.032 7.179 24.744 6.395 13.529 16.344 33.129 17.085 47.413 1.472 28.653-14.318 30.005-5.877 52.621 6.72 17.934 20.848 18.576 25.945 22.213 4.151 2.957 2.608 6.694 6.197 10.387 4.41 4.517 17.081 6.919 22.463 8.361 8.418 2.264 19.938 2.091 28.803 1.139 6.543-0.701 18.756-4.116 24.195-6.578 3.915-1.773 6.082-4.417 7.627-8.124 4.95-11.771 14.391-3.282 26.718-22.263 4.996-7.67 5.896-16.739 3.666-25.204-0.903-3.462-7.018-21.746-9.411-22.981-4.207-2.14-8.662 0.541-9.008 4.813-0.75 9.443 13.521 22.716 4.2 37.573-7.871 12.523-20.793 7.044-26.345 21.035-2.141 5.402-3.412 4.866-9.655 6.88-8.826 2.836-19.292 3.902-29.359 3.171-31.127-2.19-23.513-9.936-31.483-16.785-7.762-6.672-23.911-5.997-24.711-24.398-0.649-15.063 13.802-18.16 6.104-54.906-4.115-19.705-22.737-46.968-22.283-57.070 0.299-6.579 4.211-7.271 5.199-11.386 3.305-13.964-16.787-3.953-19.555-2.886-16.78 6.394-32.069 13.076-52.36 4.953-13.034-5.233-30.783-18.575-35.336-29.412 3.057-2.461 21.235-8.87 26.373-10.788 4.212-1.575 9.906-2.772 11.082-7.079 1.773-6.494-4.659-8.264-9.617-6.525l-40.093 15.986c-9.788 6.179 13.402 35.843 40.681 47.956 27.86 12.334 40.533 2.465 61.626-2.809z"></path>
<path fill="#d2e28b" d="M242.347 405.989c-5.282 0.855-13.373 3.552-9.564 10.407 3.411 6.151 9.294 0.003 16.146 2.016 14.712 4.303 13.42-15.695-6.593-12.424z"></path>
</svg>
